<svg width="64" height="64" version="1.1" viewBox="0 0 16.9 16.9" xmlns="http://www.w3.org/2000/svg">
 <g>
  <rect width="16.9" height="16.9" ry="1.77" fill="#333"/>
  <g transform="matrix(1.5 0 0 1.5 54.6 10.3)" fill="#f2f2f2" style="shape-inside:url(#rect4577);white-space:pre" aria-label="St">
   <path d="m-31.1-4.9c-.889 0-1.98.931-1.98 2.11 0 1.46 1.66 2.96 1.66 3.95 0 .624-.434 1.24-.921 1.24-1.13 0-.974-1.86-.413-2.41.116-.106.0635-.529-.0952-.466-.159.0741-.762.423-.974 1.3-.212.878.201 1.92 1.31 1.92.762 0 1.96-.773 1.96-1.9 0-1.44-1.82-2.37-1.82-3.94 0-.857.741-1.52 1.29-1.52.963 0 .593 1.73-.0423 2.34-.296.286.635.286 1.02-.519.381-.804.222-2.08-.995-2.08z"/>
   <path d="m-27.8.0873c-.222.434-1.21 2.24-1.48 2.24-.36 0-.18-1.64.127-3.39.328-.0106.646-.0212.868-.0106.0952 0 .159-.54.0529-.54-.212-.0106-.519.0212-.836.0635.254-1.35.571-2.7.751-3.29.0318-.106-.72-.529-.762-.349-.254 1.04-.519 2.42-.709 3.75-.222.0423-.402.0741-.508.106-.222.0423-.201.392-.138.392.169-.0317.37-.0529.582-.0741-.0635.497-.116.974-.159 1.42-.106 1.31.0212 2.2.624 2.2.571 0 1.52-1.93 1.76-2.43.0529-.0952-.127-.169-.169-.0847z"/>
  </g>
 </g>
</svg>
