<svg width="64" height="64" version="1.1" viewBox="0 0 16.9 16.9" xmlns="http://www.w3.org/2000/svg">
 <g>
  <rect width="16.9" height="16.9" ry="1.77" fill="#333"/>
  <path d="m4.62 4.98c-.018.00399-.0302.0135-.0341.03-.186.761-.381 1.78-.52 2.75-.163.0311-.295.0542-.373.0775-.163.0311-.147.287-.101.287.124-.0233.272-.0387.427-.0543-.0466.365-.0852.715-.116 1.04-.0777.963.0157 1.61.458 1.61.295 0 .725-.697 1.02-1.24-.0467.704.192 1.27.545 1.27.163 0 .326-.272.458-.567.0078.318.0932.551.295.551.404 0 1.1-1.41 1.27-1.78l.256-.536c.0155 0 .0387.00775.062.00775.132 0 .241-.0387.326-.0853-.272.909-.559 2.39.0625 2.39.313 0 .796-.838 1.08-1.39-.0437.832.0669 1.38.472 1.38.303 0 .749-.736 1.04-1.29-.0924.688-.0901 1.29.226 1.29.28 0 .73-.621 1.02-1.2-.0854.652-.062 1.2.233 1.2.317 0 .81-.854 1.1-1.41-.0824 1.01-.203 2.17-.272 2.52-.0233.116.318.155.349-.0078.0777-.357.155-.839.233-1.37.0621.163.171.256.342.256.373 0 .745-.373.97-.862.186-.0699.35-.179.482-.303.186-.179.31-.435.396-.613.0311-.0777-.0852-.14-.116-.0775-.109.217-.249.466-.458.652-.0699.0544-.139.101-.217.132.0777-.217.132-.458.147-.691.0466-.862-.209-1.37-.691-1.35-.388.0155-.521.955-.451 1.42.0388.326.156.691.427.831-.124.373-.28.676-.42.676-.21 0-.311-.513-.256-1.22l.202-1.5c.0155-.0777-.582-.0856-.582.109 0 .213-.0229.588-.0543 1.01-.191.373-.683 1.26-.815 1.26-.132 0 .0543-1.52.342-2.38.0233-.0777-.544-.0856-.582.109-.0544.233-.124.528-.187.839-.194.637-.698 1.44-.823 1.44-.14 0 .0465-1.52.334-2.38.0311-.0777-.536-.0856-.582.109-.0646.28-.147.654-.215 1.04-.214.407-.846 1.55-1.04 1.55-.264 0-.132-1.2.0935-2.49.241-.00777.474-.0155.637-.00775.0699 0 .116-.396.0388-.396-.155-.00777-.38.016-.613.047.186-.994.419-1.98.551-2.42.0233-.0777-.528-.388-.559-.256-.186.761-.381 1.78-.52 2.75-.163.0311-.295.0542-.373.0775-.163.0311-.148.287-.101.287.124-.0233.272-.0387.427-.0543-.0402.315-.0721.611-.101.898-.191.381-.677 1.25-.8 1.25-.365 0 .0465-1.52.334-2.38.0311-.0777-.513-.0779-.582.109 0 0-.163.326-.365.28-.0155-.00777-.0387-.0155-.0543-.031.248-.606.458-1.34.0155-1.34-.528 0-.73 1.26-.249 1.52-.0699.179-.155.357-.24.52-.162.337-.7 1.32-.839 1.32-.179 0-.0314-.878.163-1.41.0233-.0699-.411-.295-.473-.132-.0699.186-.14.435-.194.683-.0932.303-.404 1.14-.536 1.14-.148 0-.132-.707.0775-1.51.202-.8.49-1.13.699-1.13.202 0 .218.528.21.606 0 .0699.178.0777.209-.0233.0621-.163.047-.792-.497-.792-.458 0-.99.513-1.2 1.39-.236.445-.823 1.49-1.01 1.49-.264 0-.132-1.2.093-2.49.241-.00777.474-.0155.637-.00775.0699 0 .117-.396.0393-.396-.155-.00777-.381.016-.614.047.186-.994.419-1.98.551-2.42.0204-.0679-.399-.314-.525-.286zm-1.51.24c-.652 0-1.45.683-1.45 1.55 0 1.07 1.22 2.17 1.22 2.9 0 .458-.318.908-.675.908-.831 0-.714-1.37-.303-1.77.0854-.0777.0467-.388-.0698-.342-.116.0544-.559.311-.715.955-.155.645.148 1.41.963 1.41.559 0 1.44-.567 1.44-1.4 0-1.06-1.34-1.74-1.34-2.89 0-.629.543-1.12.947-1.12.707 0 .435 1.27-.031 1.72-.217.21.466.209.746-.381.28-.59.163-1.53-.73-1.53zm5.27 1.85c.109 0 .00761.435-.179.955-.0854-.334.0623-.955.179-.955zm6.57.746c.194 0 .326.559.225 1.2-.0388.21-.0929.458-.155.684-.171-.0932-.272-.342-.326-.699-.0699-.419.0622-1.18.256-1.18z" fill="#f2f2f2" style="white-space:pre"/>
 </g>
</svg>
