<?xml version="1.0" encoding="UTF-8" standalone="no"?>
<svg
   xmlns:dc="http://purl.org/dc/elements/1.1/"
   xmlns:cc="http://creativecommons.org/ns#"
   xmlns:rdf="http://www.w3.org/1999/02/22-rdf-syntax-ns#"
   xmlns:svg="http://www.w3.org/2000/svg"
   xmlns="http://www.w3.org/2000/svg"
   xmlns:sodipodi="http://sodipodi.sourceforge.net/DTD/sodipodi-0.dtd"
   xmlns:inkscape="http://www.inkscape.org/namespaces/inkscape"
   inkscape:export-ydpi="768"
   inkscape:export-xdpi="768"
   inkscape:export-filename="D:\Downloads\logo512.png"
   sodipodi:docname="icon.svg"
   inkscape:version="1.0.2 (e86c870879, 2021-01-15, custom)"
   id="svg8"
   version="1.1"
   viewBox="0 0 16.933333 16.933334"
   height="64"
   width="64">
  <defs
     id="defs2">
    <rect
       x="-33.898809"
       y="-7.4227518"
       width="31.345761"
       height="13.852651"
       id="rect4577" />
    <rect
       x="-8.5583541"
       y="-7.1208181"
       width="85.759973"
       height="19.12814"
       id="rect4330" />
    <rect
       id="rect848"
       height="16.906861"
       width="16.906861"
       y="0.01323625"
       x="0.01323625" />
    <filter
       style="color-interpolation-filters:sRGB;"
       inkscape:label="Drop Shadow"
       id="filter1122">
      <feFlood
         flood-opacity="1"
         flood-color="rgb(0,0,0)"
         result="flood"
         id="feFlood1112" />
      <feComposite
         in="flood"
         in2="SourceGraphic"
         operator="in"
         result="composite1"
         id="feComposite1114" />
      <feGaussianBlur
         in="composite1"
         stdDeviation="0.2"
         result="blur"
         id="feGaussianBlur1116" />
      <feOffset
         dx="0"
         dy="0"
         result="offset"
         id="feOffset1118" />
      <feComposite
         in="SourceGraphic"
         in2="offset"
         operator="over"
         result="fbSourceGraphic"
         id="feComposite1120" />
      <feColorMatrix
         result="fbSourceGraphicAlpha"
         in="fbSourceGraphic"
         values="0 0 0 -1 0 0 0 0 -1 0 0 0 0 -1 0 0 0 0 1 0"
         id="feColorMatrix1304" />
      <feFlood
         id="feFlood1306"
         flood-opacity="0.6"
         flood-color="rgb(0,0,0)"
         result="flood"
         in="fbSourceGraphic" />
      <feComposite
         in2="fbSourceGraphic"
         id="feComposite1308"
         in="flood"
         operator="in"
         result="composite1" />
      <feGaussianBlur
         id="feGaussianBlur1310"
         in="composite1"
         stdDeviation="0.2"
         result="blur" />
      <feOffset
         id="feOffset1312"
         dx="0"
         dy="0"
         result="offset" />
      <feComposite
         in2="offset"
         id="feComposite1314"
         in="fbSourceGraphic"
         operator="over"
         result="composite2" />
    </filter>
    <filter
       style="color-interpolation-filters:sRGB;"
       inkscape:label="Drop Shadow"
       id="filter1122-7">
      <feFlood
         flood-opacity="1"
         flood-color="rgb(0,0,0)"
         result="flood"
         id="feFlood1112-3" />
      <feComposite
         in="flood"
         in2="SourceGraphic"
         operator="in"
         result="composite1"
         id="feComposite1114-9" />
      <feGaussianBlur
         in="composite1"
         stdDeviation="0.2"
         result="blur"
         id="feGaussianBlur1116-3" />
      <feOffset
         dx="0"
         dy="0"
         result="offset"
         id="feOffset1118-1" />
      <feComposite
         in="SourceGraphic"
         in2="offset"
         operator="over"
         result="fbSourceGraphic"
         id="feComposite1120-1" />
      <feColorMatrix
         result="fbSourceGraphicAlpha"
         in="fbSourceGraphic"
         values="0 0 0 -1 0 0 0 0 -1 0 0 0 0 -1 0 0 0 0 1 0"
         id="feColorMatrix1316" />
      <feFlood
         id="feFlood1318"
         flood-opacity="0.6"
         flood-color="rgb(0,0,0)"
         result="flood"
         in="fbSourceGraphic" />
      <feComposite
         in2="fbSourceGraphic"
         id="feComposite1320"
         in="flood"
         operator="in"
         result="composite1" />
      <feGaussianBlur
         id="feGaussianBlur1322"
         in="composite1"
         stdDeviation="0.2"
         result="blur" />
      <feOffset
         id="feOffset1324"
         dx="0"
         dy="0"
         result="offset" />
      <feComposite
         in2="offset"
         id="feComposite1326"
         in="fbSourceGraphic"
         operator="over"
         result="composite2" />
    </filter>
    <filter
       style="color-interpolation-filters:sRGB;"
       inkscape:label="Drop Shadow"
       id="filter1122-8">
      <feFlood
         flood-opacity="1"
         flood-color="rgb(0,0,0)"
         result="flood"
         id="feFlood1112-8" />
      <feComposite
         in="flood"
         in2="SourceGraphic"
         operator="in"
         result="composite1"
         id="feComposite1114-5" />
      <feGaussianBlur
         in="composite1"
         stdDeviation="0.2"
         result="blur"
         id="feGaussianBlur1116-8" />
      <feOffset
         dx="0"
         dy="0"
         result="offset"
         id="feOffset1118-8" />
      <feComposite
         in="SourceGraphic"
         in2="offset"
         operator="over"
         result="fbSourceGraphic"
         id="feComposite1120-4" />
      <feColorMatrix
         result="fbSourceGraphicAlpha"
         in="fbSourceGraphic"
         values="0 0 0 -1 0 0 0 0 -1 0 0 0 0 -1 0 0 0 0 1 0"
         id="feColorMatrix1340" />
      <feFlood
         id="feFlood1342"
         flood-opacity="0.6"
         flood-color="rgb(0,0,0)"
         result="flood"
         in="fbSourceGraphic" />
      <feComposite
         in2="fbSourceGraphic"
         id="feComposite1344"
         in="flood"
         operator="in"
         result="composite1" />
      <feGaussianBlur
         id="feGaussianBlur1346"
         in="composite1"
         stdDeviation="0.2"
         result="blur" />
      <feOffset
         id="feOffset1348"
         dx="0"
         dy="0"
         result="offset" />
      <feComposite
         in2="offset"
         id="feComposite1350"
         in="fbSourceGraphic"
         operator="over"
         result="composite2" />
    </filter>
    <filter
       style="color-interpolation-filters:sRGB"
       inkscape:label="Drop Shadow"
       id="filter1122-2">
      <feFlood
         flood-opacity="1"
         flood-color="rgb(0,0,0)"
         result="flood"
         id="feFlood1112-7" />
      <feComposite
         in="flood"
         in2="SourceGraphic"
         operator="in"
         result="composite1"
         id="feComposite1114-7" />
      <feGaussianBlur
         in="composite1"
         stdDeviation="0.2"
         result="blur"
         id="feGaussianBlur1116-5" />
      <feOffset
         dx="0"
         dy="0"
         result="offset"
         id="feOffset1118-3" />
      <feComposite
         in="SourceGraphic"
         in2="offset"
         operator="over"
         result="composite2"
         id="feComposite1120-6" />
    </filter>
    <filter
       style="color-interpolation-filters:sRGB;"
       inkscape:label="Drop Shadow"
       id="filter1122-9">
      <feFlood
         flood-opacity="1"
         flood-color="rgb(0,0,0)"
         result="flood"
         id="feFlood1112-1" />
      <feComposite
         in="flood"
         in2="SourceGraphic"
         operator="in"
         result="composite1"
         id="feComposite1114-3" />
      <feGaussianBlur
         in="composite1"
         stdDeviation="0.2"
         result="blur"
         id="feGaussianBlur1116-7" />
      <feOffset
         dx="0"
         dy="0"
         result="offset"
         id="feOffset1118-5" />
      <feComposite
         in="SourceGraphic"
         in2="offset"
         operator="over"
         result="fbSourceGraphic"
         id="feComposite1120-68" />
      <feColorMatrix
         result="fbSourceGraphicAlpha"
         in="fbSourceGraphic"
         values="0 0 0 -1 0 0 0 0 -1 0 0 0 0 -1 0 0 0 0 1 0"
         id="feColorMatrix1328" />
      <feFlood
         id="feFlood1330"
         flood-opacity="0.6"
         flood-color="rgb(0,0,0)"
         result="flood"
         in="fbSourceGraphic" />
      <feComposite
         in2="fbSourceGraphic"
         id="feComposite1332"
         in="flood"
         operator="in"
         result="composite1" />
      <feGaussianBlur
         id="feGaussianBlur1334"
         in="composite1"
         stdDeviation="0.2"
         result="blur" />
      <feOffset
         id="feOffset1336"
         dx="0"
         dy="0"
         result="offset" />
      <feComposite
         in2="offset"
         id="feComposite1338"
         in="fbSourceGraphic"
         operator="over"
         result="composite2" />
    </filter>
    <filter
       style="color-interpolation-filters:sRGB;"
       inkscape:label="Drop Shadow"
       id="filter1122-5">
      <feFlood
         flood-opacity="1"
         flood-color="rgb(0,0,0)"
         result="flood"
         id="feFlood1112-6" />
      <feComposite
         in="flood"
         in2="SourceGraphic"
         operator="in"
         result="composite1"
         id="feComposite1114-0" />
      <feGaussianBlur
         in="composite1"
         stdDeviation="0.2"
         result="blur"
         id="feGaussianBlur1116-9" />
      <feOffset
         dx="0"
         dy="0"
         result="offset"
         id="feOffset1118-2" />
      <feComposite
         in="SourceGraphic"
         in2="offset"
         operator="over"
         result="fbSourceGraphic"
         id="feComposite1120-8" />
      <feColorMatrix
         result="fbSourceGraphicAlpha"
         in="fbSourceGraphic"
         values="0 0 0 -1 0 0 0 0 -1 0 0 0 0 -1 0 0 0 0 1 0"
         id="feColorMatrix1352" />
      <feFlood
         id="feFlood1354"
         flood-opacity="0.6"
         flood-color="rgb(0,0,0)"
         result="flood"
         in="fbSourceGraphic" />
      <feComposite
         in2="fbSourceGraphic"
         id="feComposite1356"
         in="flood"
         operator="in"
         result="composite1" />
      <feGaussianBlur
         id="feGaussianBlur1358"
         in="composite1"
         stdDeviation="0.2"
         result="blur" />
      <feOffset
         id="feOffset1360"
         dx="0"
         dy="0"
         result="offset" />
      <feComposite
         in2="offset"
         id="feComposite1362"
         in="fbSourceGraphic"
         operator="over"
         result="composite2" />
    </filter>
    <rect
       x="-8.5583544"
       y="-7.1208181"
       width="85.759972"
       height="19.128139"
       id="rect4330-3" />
    <rect
       x="-8.5583544"
       y="-7.1208181"
       width="85.759972"
       height="19.128139"
       id="rect4343" />
    <rect
       x="-8.5583544"
       y="-7.1208181"
       width="85.759972"
       height="19.128139"
       id="rect4330-3-4" />
    <rect
       x="-8.5583544"
       y="-7.1208181"
       width="85.759972"
       height="19.128139"
       id="rect4399" />
    <rect
       x="-8.5583544"
       y="-7.1208181"
       width="85.759972"
       height="19.128139"
       id="rect4330-3-4-4" />
    <rect
       x="-8.5583544"
       y="-7.1208181"
       width="85.759972"
       height="19.128139"
       id="rect4435" />
    <rect
       x="-8.5583544"
       y="-7.1208181"
       width="85.759972"
       height="19.128139"
       id="rect4330-3-4-4-9" />
    <rect
       x="-8.5583544"
       y="-7.1208181"
       width="85.759972"
       height="19.128139"
       id="rect4471" />
  </defs>
  <sodipodi:namedview
     inkscape:snap-global="false"
     inkscape:window-maximized="1"
     inkscape:window-y="-8"
     inkscape:window-x="-8"
     inkscape:window-height="1017"
     inkscape:window-width="1920"
     units="px"
     showgrid="false"
     inkscape:document-rotation="0"
     inkscape:current-layer="layer1"
     inkscape:document-units="mm"
     inkscape:cy="39.44772"
     inkscape:cx="-2.7998289"
     inkscape:zoom="6.4990182"
     inkscape:pageshadow="2"
     inkscape:pageopacity="0.0"
     borderopacity="1.0"
     bordercolor="#666666"
     pagecolor="#ffffff"
     id="base" />
  <metadata
     id="metadata5">
    <rdf:RDF>
      <cc:Work
         rdf:about="">
        <dc:format>image/svg+xml</dc:format>
        <dc:type
           rdf:resource="http://purl.org/dc/dcmitype/StillImage" />
        <dc:title></dc:title>
      </cc:Work>
    </rdf:RDF>
  </metadata>
  <g
     id="layer1"
     inkscape:groupmode="layer"
     inkscape:label="Layer 1">
    <rect
       style="fill:#333333;fill-opacity:1;stroke:none;stroke-width:0.420686;stroke-linecap:round;stroke-linejoin:round;stroke-miterlimit:4;stroke-dasharray:none;stroke-opacity:1"
       id="rect989"
       width="16.933332"
       height="16.933332"
       x="0"
       y="0"
       ry="1.7718468" />
    <path
       id="path4501"
       style="font-style:normal;font-variant:normal;font-weight:normal;font-stretch:normal;font-size:10.5833px;line-height:1.25;font-family:Atlantika;-inkscape-font-specification:Atlantika;letter-spacing:0px;word-spacing:0px;white-space:pre;fill:#f2f2f2;fill-opacity:1;stroke:none;stroke-width:0.733756"
       d="m 4.6228824,4.9814933 c -0.018004,0.00399 -0.030224,0.013471 -0.034106,0.029972 -0.186373,0.7610242 -0.3806018,1.7784921 -0.5203817,2.7491862 -0.163077,0.031062 -0.294931,0.054218 -0.372587,0.077515 -0.1630766,0.031062 -0.1473625,0.2873208 -0.1007696,0.2873208 0.1242491,-0.023297 0.2715363,-0.038729 0.4268475,-0.05426 -0.04659,0.364981 -0.085209,0.7146102 -0.1162722,1.0407634 -0.07766,0.9629283 0.015732,1.6148883 0.45837,1.6148883 0.2951758,0 0.7254243,-0.697082 1.0159587,-1.2417846 -0.046656,0.7039036 0.1922989,1.2650386 0.5446697,1.2650386 0.1630759,0 0.3263558,-0.271799 0.4583699,-0.56689 0.0078,0.318388 0.093172,0.551388 0.2950724,0.551387 0.4038089,0 1.1024653,-1.4132044 1.2733072,-1.7781855 L 8.2076764,8.4205599 c 0.01553,0 0.038722,0.00775 0.062012,0.00775 0.1320141,0 0.2406573,-0.038673 0.3260783,-0.085266 -0.271794,0.9085696 -0.5587116,2.3915851 0.062528,2.3915851 0.3131116,0 0.7963525,-0.8382281 1.0805541,-1.390096 -0.043659,0.831908 0.066903,1.382345 0.4723242,1.382345 0.30303,0 0.749491,-0.7356351 1.03973,-1.2857099 -0.09237,0.6880249 -0.0901,1.2934609 0.225826,1.2934609 0.27956,0 0.730184,-0.621127 1.017509,-1.2035441 -0.08542,0.6523071 -0.06203,1.2035441 0.233061,1.2035441 0.316629,0 0.810305,-0.8539291 1.095024,-1.405082 -0.08235,1.006126 -0.202792,2.16837 -0.271818,2.523361 -0.0233,0.116483 0.31827,0.155329 0.349332,-0.0078 0.07766,-0.357215 0.155405,-0.838784 0.233061,-1.366842 0.06212,0.163077 0.170739,0.256315 0.341581,0.256315 0.372747,0 0.745282,-0.372733 0.970484,-0.8619621 0.186373,-0.06989 0.349609,-0.178575 0.481624,-0.3028245 0.186373,-0.1786077 0.31042,-0.4347916 0.395841,-0.6133994 0.03106,-0.077655 -0.08521,-0.1396383 -0.116271,-0.077514 -0.108718,0.2174353 -0.248701,0.465783 -0.45837,0.6521563 -0.06989,0.054359 -0.139386,0.1012296 -0.217042,0.1322916 0.07766,-0.2174353 0.131747,-0.4584638 0.147278,-0.6914305 0.04659,-0.8619762 -0.209449,-1.3668698 -0.690914,-1.3513387 -0.388277,0.015531 -0.520508,0.9551688 -0.450618,1.4211019 0.03883,0.3261532 0.15557,0.6911773 0.427364,0.8309573 -0.124248,0.3727461 -0.279833,0.6759271 -0.419613,0.6759281 -0.209669,0 -0.310674,-0.512899 -0.256315,-1.2195645 l 0.202055,-1.4986164 c 0.01553,-0.077655 -0.582393,-0.085618 -0.582393,0.1085204 0,0.2125001 -0.02287,0.5881428 -0.05426,1.0128581 -0.191156,0.3727579 -0.683044,1.2624554 -0.815455,1.2624554 -0.132014,0 0.05426,-1.5218577 0.341582,-2.3838339 0.0233,-0.077655 -0.543566,-0.085618 -0.582394,0.1085204 -0.05436,0.2329667 -0.124427,0.5280864 -0.186552,0.8387085 -0.194138,0.6367754 -0.69844,1.436605 -0.822688,1.436605 -0.13978,0 0.0465,-1.5218577 0.333829,-2.3838339 0.03106,-0.077655 -0.5358,-0.085618 -0.582393,0.1085204 -0.06465,0.2801414 -0.146825,0.6544413 -0.215491,1.0366293 -0.213981,0.4074255 -0.845656,1.5497762 -1.035079,1.5497762 -0.264031,0 -0.131672,-1.2038036 0.09353,-2.4851196 0.240732,-0.00777 0.473577,-0.015512 0.636653,-0.00775 0.06989,0 0.116414,-0.3963582 0.03876,-0.3963582 -0.15531,-0.00777 -0.380432,0.015963 -0.613399,0.047025 C 10.630606,6.6890986 10.863605,5.7026039 10.99562,5.2677329 11.01892,5.1900779 10.467543,4.8794034 10.436481,5.0114178 10.250108,5.772442 10.055877,6.7899099 9.916097,7.760604 9.75302,7.791666 9.621166,7.814822 9.54351,7.838119 9.380434,7.869181 9.3956312,8.1254398 9.4422243,8.1254398 c 0.1242489,-0.023297 0.272052,-0.038729 0.427364,-0.05426 -0.040182,0.3147843 -0.072135,0.6109231 -0.100769,0.8976196 -0.1909749,0.3812677 -0.6765049,1.2454026 -0.7999512,1.2454026 -0.3649801,0 0.046501,-1.5218581 0.3338298,-2.3838343 0.03106,-0.077655 -0.5125035,-0.077852 -0.5823934,0.1085204 0,0 -0.1634485,0.326163 -0.3653523,0.2795696 -0.01553,-0.00777 -0.03873,-0.015475 -0.054261,-0.031006 0.2484982,-0.605713 0.4581411,-1.335319 0.015503,-1.335319 -0.5280581,0 -0.7300275,1.2578424 -0.2485636,1.5218712 C 7.9977433,8.5526587 7.9127589,8.7313561 7.8273379,8.8944326 7.6651391,9.2317869 7.1268543,10.214249 6.9886294,10.214249 c -0.178607,0 -0.031356,-0.8775275 0.1627807,-1.4133506 C 7.1747101,8.7310084 6.740179,8.5060468 6.6780541,8.6691235 6.6081641,8.8554968 6.5381088,9.1037881 6.4837507,9.3522858 6.3905607,9.6551429 6.0798801,10.493818 5.947866,10.493818 5.80032,10.493818 5.8157058,9.7873159 6.025381,8.9796988 6.2272851,8.179847 6.5148932,7.845918 6.7245631,7.845918 c 0.2019041,0 0.2175714,0.5279921 0.2098064,0.6056476 0,0.06989 0.1782275,0.077699 0.2092896,-0.023254 0.06212,-0.1630768 0.046974,-0.7921998 -0.4966107,-0.7921998 -0.4583689,0 -0.9904952,0.5131191 -1.1999267,1.3947468 -0.2360821,0.4445722 -0.8233209,1.4944824 -1.0056233,1.4944824 -0.264029,0 -0.1321874,-1.2038035 0.093018,-2.4851195 0.240732,-0.00777 0.4735764,-0.015512 0.6366537,-0.00775 0.06989,0 0.116927,-0.3963582 0.039274,-0.3963582 C 5.0551325,7.6283416 4.8294945,7.6520742 4.5965273,7.683137 4.7829014,6.6891464 5.0159001,5.7026517 5.147915,5.2677807 5.1683024,5.1998325 4.7489064,4.9535708 4.6228824,4.9814933 Z M 3.1134139,5.221272 c -0.6523061,0 -1.4521079,0.6831491 -1.4521079,1.5451253 0,1.0716461 1.219047,2.1747845 1.219047,2.8969806 0,0.4581681 -0.3181948,0.9084721 -0.6754109,0.9084721 -0.8309138,0 -0.714398,-1.3671429 -0.3028238,-1.7709516 0.08542,-0.077655 0.046717,-0.3881747 -0.069763,-0.3415813 -0.1164841,0.054359 -0.5593741,0.3109566 -0.7146852,0.9554972 -0.155311,0.6445407 0.1478657,1.4055987 0.9632488,1.4055987 0.5591199,0 1.4366047,-0.566933 1.4366049,-1.3978472 0,-1.0561151 -1.3358359,-1.7394108 -1.3358359,-2.8887126 0,-0.6290096 0.54342,-1.1182779 0.9472292,-1.1182779 0.7066647,0 0.434925,1.2657723 -0.031006,1.7161743 C 2.880475,7.3414195 3.5640419,7.3410763 3.8436017,6.7508943 4.1231618,6.1607124 4.0064517,5.221272 3.1134139,5.221272 Z m 5.2730629,1.8479492 c 0.1087181,0 0.00761,0.4352051 -0.1788004,0.9554971 -0.08542,-0.3339187 0.062313,-0.9554971 0.1788004,-0.9554971 z M 14.956103,7.814912 c 0.19414,0 0.325745,0.5590175 0.224793,1.1957928 -0.03883,0.2096699 -0.09291,0.4584779 -0.155029,0.6836791 -0.170843,-0.093187 -0.27172,-0.3419668 -0.326079,-0.6991821 -0.06989,-0.41934 0.06218,-1.1802898 0.256315,-1.1802898 z" />
  </g>
</svg>
