<?xml version="1.0" encoding="UTF-8" standalone="no"?>
<svg
   xmlns:dc="http://purl.org/dc/elements/1.1/"
   xmlns:cc="http://creativecommons.org/ns#"
   xmlns:rdf="http://www.w3.org/1999/02/22-rdf-syntax-ns#"
   xmlns:svg="http://www.w3.org/2000/svg"
   xmlns="http://www.w3.org/2000/svg"
   xmlns:sodipodi="http://sodipodi.sourceforge.net/DTD/sodipodi-0.dtd"
   xmlns:inkscape="http://www.inkscape.org/namespaces/inkscape"
   width="64"
   height="64"
   viewBox="0 0 16.933333 16.933334"
   version="1.1"
   id="svg4595"
   inkscape:version="1.0.2 (e86c870879, 2021-01-15, custom)"
   sodipodi:docname="05_decomp_icons.svg"
   inkscape:export-filename="D:\Downloads\weather-mixed.png"
   inkscape:export-xdpi="768.00006"
   inkscape:export-ydpi="768.00006">
  <defs
     id="defs4589">
    <rect
       x="-15.190787"
       y="-12.338639"
       width="24.429265"
       height="17.670915"
       id="rect5185" />
    <rect
       x="0"
       y="0.17537156"
       width="17.186413"
       height="16.83567"
       id="rect5170" />
  </defs>
  <sodipodi:namedview
     id="base"
     pagecolor="#ffffff"
     bordercolor="#666666"
     borderopacity="1.0"
     inkscape:pageopacity="0.0"
     inkscape:pageshadow="2"
     inkscape:zoom="1.7520797"
     inkscape:cx="-28.721287"
     inkscape:cy="47.68212"
     inkscape:document-units="mm"
     inkscape:current-layer="layer1"
     inkscape:document-rotation="0"
     showgrid="false"
     units="px"
     inkscape:window-width="1920"
     inkscape:window-height="1017"
     inkscape:window-x="-8"
     inkscape:window-y="-8"
     inkscape:window-maximized="1"
     inkscape:snap-global="false" />
  <metadata
     id="metadata4592">
    <rdf:RDF>
      <cc:Work
         rdf:about="">
        <dc:format>image/svg+xml</dc:format>
        <dc:type
           rdf:resource="http://purl.org/dc/dcmitype/StillImage" />
        <dc:title />
      </cc:Work>
    </rdf:RDF>
  </metadata>
  <g
     inkscape:label="Layer 1"
     inkscape:groupmode="layer"
     id="layer1">
    <circle
       style="fill:#008080;stroke-width:0.0485192;stroke-linecap:round;stroke-linejoin:round"
       id="path5158-6"
       cx="73.300735"
       cy="-27.732306"
       r="10.53796" />
    <circle
       style="fill:#333333;stroke-width:0.0389825;stroke-linecap:round;stroke-linejoin:round"
       id="path5158"
       cx="48.031551"
       cy="-26.718899"
       r="8.4666672" />
    <path
       sodipodi:type="star"
       style="fill:#f2f2f2;stroke-width:0.0649999;stroke-linecap:round;stroke-linejoin:round"
       id="path5162"
       sodipodi:sides="3"
       sodipodi:cx="-76.111259"
       sodipodi:cy="16.134184"
       sodipodi:r1="19.038116"
       sodipodi:r2="9.5190582"
       sodipodi:arg1="1.0471976"
       sodipodi:arg2="2.0943951"
       inkscape:flatsided="true"
       inkscape:rounded="0"
       inkscape:randomized="0"
       inkscape:transform-center-x="-0.8920981"
       transform="matrix(-0.19460263,0,0,0.30950621,33.188852,-31.735319)"
       d="M -66.592202,32.621677 -95.149376,16.134183 -66.5922,-0.35330814 Z" />
    <g
       aria-label="П"
       transform="matrix(2.0051771,0,0,2.0051771,14.198421,-38.926235)"
       id="text5168"
       style="font-style:normal;font-weight:normal;font-size:10.5833px;line-height:1.25;font-family:sans-serif;letter-spacing:0px;word-spacing:0px;white-space:pre;shape-inside:url(#rect5170);fill:#000000;fill-opacity:1;stroke:none">
      <path
         d="m 4.6325145,2.6220088 0.4548962,0.1021196 q 0.083552,0.018567 0.2135227,0.018567 0.2785079,0 0.4734634,-0.1485375 0.1949555,-0.055702 0.3527767,-0.055702 0.482747,0 0.7612549,0.2692243 0.2228063,0.2599407 0.5198813,0.5848665 0.139254,0.1485376 0.3713439,0.1485376 0.037134,0 0.1299703,-0.018567 Q 8.1138631,3.4296813 8.206699,3.2254422 8.253117,3.1326062 8.197419,3.0490539 8.141717,2.9562179 8.0395979,2.9562179 7.853926,3.0119199 7.7425228,3.0119199 q -0.083552,0 -0.1299703,-0.037134 -0.064985,-0.1021196 -0.064985,-0.2042391 0,-0.2228063 0.3063587,-0.2228063 0.1021195,0 0.2042391,0.037134 0.2320899,0.1206867 0.2320899,0.4177618 0,0.4641798 -0.4548962,0.7612549 -0.2785079,0.1856719 -0.6034338,0.1856719 -0.2320899,0 -0.7983893,-0.4084782 Q 5.8765164,3.123323 5.7279788,3.123323 5.9415016,3.4853833 5.9415016,4.0609662 5.9229344,4.0423991 5.8858,4.0423991 5.7186952,4.4787281 5.4216202,4.5622804 q -0.1206868,0.037134 -0.1949556,0.037134 -0.1763883,0 -0.297075,-0.1299703 -0.1763884,-0.1485376 -0.1763884,-0.3991947 0,-0.083552 0.027851,-0.1671047 0.1206868,-0.1856719 0.2970751,-0.2506571 0.046418,0.00928 0.074269,0.00928 0.2042391,0 0.2413735,-0.1949555 L 5.2266646,3.308995 q 0.1485376,0 0.2506571,0.1206867 0.1114032,0.1206868 0.1114032,0.2785079 0,0.2506571 -0.2320899,0.3434931 -0.2228063,0 -0.2692243,0.00928 -0.1206867,0.037134 -0.1485375,0.185672 -0.037134,0.1671047 0.2320899,0.297075 0.3249258,0.027851 0.5105978,-0.1856719 0.1949555,-0.2135227 0.1949555,-0.5477321 0,-0.4177619 -0.1485376,-0.6127174 -0.055701,-0.074269 -0.1856719,-0.1856719 -0.7705385,0 -1.0861807,0.7891057 Q 4.4932605,3.5410849 4.7532012,3.262577 4.9017388,3.1140394 5.1988139,2.8076808 4.9852911,2.686994 4.781052,2.686994 q -0.1392539,0 -0.2228063,0.074269 l 0.1299704,0.2042391 q -0.1299704,0.037134 -0.2413735,0.037134 -0.2692243,0 -0.2692243,-0.2320899 -0.139254,-0.00928 -0.4084783,0.1671047 v 0.074269 q 0.8169565,0.8819416 0.8169565,2.1445107 0,0.4270454 -0.083552,0.8169565 -0.1856719,0.8355236 -1.2254347,2.1723615 0.7055534,-0.9376432 0.7055534,-2.2466303 0,-1.3739722 -0.7612549,-2.1352271 L 3.1100047,3.8288763 V 3.6710552 Q 2.6458249,3.2997114 1.9588388,3.2997114 H 1.7638833 q -0.1114032,0 -0.2692243,0.046418 -0.54773219,0.1671048 -0.89122525,0.6869862 -0.13925394,0.3249258 -0.13925394,0.6591353 0,0.389911 0.34349306,0.7891057 0.24137353,0.2785078 0.77053843,0.2785078 0.1763884,0 0.3063587,-0.046418 0.2320899,-0.1763884 0.2320899,-0.3899111 0,-0.064985 -0.027851,-0.1299703 Q 2.0145404,5.1285798 1.5132262,5.0078931 1.1047479,4.9057735 1.1047479,4.5994148 1.1604495,4.1909366 1.4111066,3.9774139 1.6896145,3.8103092 1.9681224,3.8103092 q 0.1671047,0 0.3156423,0.083552 0.027851,0.00928 0.037134,0.083552 -0.3713438,-0.1206868 -0.5198813,-0.1206868 -0.064985,0 -0.1299704,0.00928 -0.1021195,0.046418 -0.2413735,0.1206868 -0.1299703,0.064985 -0.1671047,0.1856719 0,0.2877915 0.1299703,0.3434931 0.1299704,0 0.3899111,-0.083552 0.2692243,-0.092836 0.389911,-0.092836 0.1114032,0 0.2320899,0.046418 0.083552,0.018567 0.3063587,0.3434931 0.00928,0.055701 0.00928,0.1578211 0,0.3713439 -0.2135227,0.5848666 -0.3806275,0.3713438 -0.9005089,0.3713438 -0.2506571,0 -0.4734634,-0.1299703 Q 0.77982208,5.6020432 0.58486656,5.2585502 0.39919464,4.9429079 0.39919464,4.5529968 q 0,-0.9562104 0.70555326,-1.5874949 0.5848666,-0.436329 1.3739723,-0.436329 h 0.1949555 q 0.2692243,0 0.6962697,0.1949555 0.1763883,0.083552 0.3249259,0.2135227 Q 3.9826628,2.8169644 4.0105135,2.8076808 4.2054691,2.686994 4.2333199,2.5570237 4.3075886,2.4827549 4.4746934,2.4827549 h 0.1671047 q 0.1392539,0 0.2042391,-0.046418 z m 1.9217044,1.6431966 q 0,0.2506571 -0.2506571,0.2877914 -0.2599407,0 -0.3342095,-0.2692242 V 4.181653 q 0.083552,0.1021196 0.1763884,0.2135227 0.027851,0.00928 0.046418,0.00928 0.027851,0 0.1485376,-0.1206867 L 6.322129,4.0702498 q 0.1578211,-0.027851 0.2320899,0.1949556 z m 0.4270454,4.5489621 q 0.1206868,0.1671047 0.3527767,0.3063587 0.1485375,0.064985 0.3156422,0.064985 0.185672,0 0.2877915,-0.083552 L 8.1695646,8.9070035 7.6961012,9.5661388 q -0.3063586,0.3527766 -0.7241205,0.3527766 -0.4920306,0 -0.7705385,-0.6498517 -0.2320899,-1.0026284 -0.2320899,-1.9681224 0,-1.4760918 0.5013142,-2.367317 0.1114032,-0.1949555 0.482747,-0.4270454 0.4363291,-0.2692243 0.529165,-0.3620603 -0.7055533,0.7705385 -0.7055533,2.2651975 0,0 0.00928,0.2877915 0.018567,0.3713438 0.027851,0.7891056 0.00928,0.3434931 0.018567,0.6869862 0.027851,0.4734634 0.1485375,0.6405681 z M 3.4627814,4.6644 Q 3.4720614,4.710818 3.332811,4.9521915 3.30496,5.1657142 3.30496,5.3421025 q 0,0.2413735 0.055702,0.7148369 0.064985,0.4734634 0.064985,0.7148369 V 7.0502842 Q 3.397796,7.170971 3.388513,7.2266725 q 0.092836,0.092836 0.092836,0.1578212 0,0.037134 -0.018567,0.064985 Q 3.3235274,7.468046 3.2956766,7.5794492 3.2771094,7.5423148 3.2771094,7.5051804 3.1378555,7.3752101 3.1285719,7.3473593 q 0,-0.055702 0.1206868,-0.1021196 h 0.074269 q 0.027851,-0.1114031 0.027851,-0.2413735 0,-0.2413735 -0.1206867,-0.3806274 Q 3.1471391,6.5675372 2.803646,6.4654177 2.4972874,6.3818653 2.4323022,6.159059 2.413735,6.0012378 2.5158546,5.8619839 2.6272577,5.7134464 2.7850789,5.676312 h 0.1299703 q -0.2413735,0 -0.2692243,0.1763883 0,0.1949555 0.2785079,0.3806275 0.3249259,0.2228063 0.3713438,0.3156422 0.018567,0.00928 0.027851,0.00928 0.1021196,0 0.074269,-0.1299703 -0.064985,-0.3527767 -0.2970751,-1.5596442 0.00928,0 0.1671048,-0.1392539 Q 3.379229,4.6365492 3.4627814,4.6644 Z m 2.4508694,0.064985 q -0.1114032,0.00928 -0.185672,0.2135227 0,0.046418 0.083552,0.2135227 0.083552,0.1671047 0.055702,0.2413735 -0.2506571,0.055702 -0.2506571,0.2042391 0,0.037134 0.037134,0.092836 0.074269,0.3156422 0.074269,0.3991946 0,-0.1299703 -0.1114031,-0.3063587 Q 5.5144561,5.6113268 5.3937694,5.5741924 5.2823662,5.5277744 5.217381,5.5277744 q -0.1299703,0 -0.3620602,0.1114032 -0.1485375,0.1299703 -0.1485375,0.3063587 0,0.2692243 0.3342094,0.2692243 0.083552,-0.074269 0.074269,-0.185672 L 5.0038583,5.9176855 q 0.00928,-0.083552 0.1206868,-0.083552 0.064985,0 0.1949555,0.046418 0.1392539,0.1206867 0.1392539,0.2877915 0,0.343493 -0.3806274,0.343493 -0.074269,0 -0.1763883,-0.027851 -0.2413735,-0.1206867 -0.2413735,-0.4270454 0,-0.1299703 0.027851,-0.2599407 0.1021195,-0.2228063 0.3806274,-0.297075 0.1114032,-0.027851 0.4734634,0.1114031 -0.018567,-0.2320899 -0.018567,-0.3713438 0,-0.3527767 0.2320899,-0.4456127 z M 5.7372624,6.3911489 Z M 4.6139473,7.5794492 q 0.074269,-0.00928 0.2228063,-0.00928 0.4920306,0 0.7612549,0.2877915 0.2692243,0.2785079 0.2692243,0.7705385 0,0.1856719 -0.064985,0.3713438 0.1671047,0.1114032 0.1671047,0.2599407 0,0.055702 -0.1949555,0.3806274 0,0.1485376 0.139254,0.1485376 h 0.1485375 l 0.055702,-0.055702 q -0.055702,0.1021196 -0.2042391,0.1021196 -0.1763884,0 -0.2599407,-0.1763884 Q 5.6351437,9.6311269 5.5608747,9.3340521 5.39377,9.4547388 5.1245457,9.4547388 4.818187,9.4547388 4.6696495,9.3340521 4.5211113,9.2040785 4.4004246,8.9070035 4.2426035,8.4985252 4.0940659,8.3964057 3.954812,8.3499877 3.861976,8.572794 3.8062744,8.5449432 3.8062744,8.4521072 q 0,-0.083552 0.037134,-0.1485375 0.083552,-0.092836 0.1856719,-0.092836 0.2042392,0 0.2506571,0.2228063 0.037134,0.1485376 0.1485376,0.1485376 0.055702,-0.2228063 0.389911,-0.3899111 0.1114032,-0.055702 0.1763883,-0.055702 0.3991947,0 0.3991947,0.389911 0,0.1114032 -0.055702,0.1949555 -0.1949555,0.064985 -0.1949555,0.1763884 0,0.1299703 0.1392539,0.1299703 H 5.430903 l 0.092836,-0.064985 q -0.083552,0.1206868 -0.2506571,0.1206868 -0.1299703,0 -0.2785079,-0.064985 -0.037134,-0.027851 -0.1114024,-0.297075 -0.064985,-0.2320899 -0.1671047,-0.2320899 -0.027851,0 -0.1021196,0.018567 -0.1671047,0.139254 -0.1671047,0.3527767 0,0.046418 0.00928,0.1021195 0.1485375,0.4084783 0.3991946,0.4270455 0.1299703,0.00928 0.2785079,0.00928 0.3063587,0 0.4270454,-0.1485375 0.1949555,-0.1671047 0.3156423,-0.6127173 0,-0.4641798 -0.2785079,-0.7334041 -0.2692243,-0.2785079 -0.7334041,-0.2785079 -0.2135227,0 -0.2599407,0.1021195 -0.074269,0.1206868 -0.083552,0.139254 -0.1299703,-0.064985 -0.2599407,-0.064985 -0.2228063,0 -0.4084782,0.1578211 L 3.908394,7.7279867 q 0.027851,0.027851 0.074269,0.027851 0.027851,0 0.1949555,-0.1114031 0.074269,-0.1021196 0.2506571,-0.2785079 0.092836,0.1021195 0.1949555,0.1021195 0.064985,0 0.4177618,-0.2042391 L 5.3659186,6.9760154 Q 5.5515905,6.8089107 5.6072921,6.6232388 5.5237397,6.8924631 5.1895303,7.1616874 5.1245451,7.2266725 4.6139473,7.5794492 Z M 2.7015265,6.9110303 Q 2.803646,6.9945826 2.803646,7.1338366 2.7943624,7.1988218 2.7479445,7.468046 2.5715561,7.6722852 2.413735,7.6722852 q -0.1114031,0 -0.2042391,-0.092836 -0.092836,-0.092836 -0.092836,-0.2042391 0,-0.092836 0.064985,-0.2228063 0.1021196,-0.064985 0.2135227,-0.055702 0.2228063,0.2228063 0.2320899,0.2228063 0.1114032,0 0.1114032,-0.1949555 0,-0.074269 -0.018567,-0.1856719 -0.1485376,-0.2042392 -0.5013142,-0.2042392 -0.083552,0 -0.2320899,0.018567 -0.482747,0.185672 -0.482747,0.6777026 0,0.297075 0.2413735,0.5198813 0.1114031,0.1021196 0.5477322,0.1763884 0.482747,0.083552 0.872658,0.2877915 0.055702,0.046418 0.3249259,0.5477321 0.083552,0.1485376 0.2042391,0.1485376 0.027851,0 0.1021195,-0.018567 0.185672,-0.1856719 0.3342095,-0.2135227 -0.7983893,0.6869861 -1.05833,1.1325987 0,-0.3620603 -0.1021195,-0.5198814 Q 2.5808397,9.101959 2.3487498,9.0276902 L 2.0888091,9.2040785 Q 2.2559139,9.0741082 2.2559139,8.9998394 1.7174653,8.6934807 1.6617637,8.6470628 1.3461214,8.4149729 1.2625691,8.1086142 1.1883003,7.9229423 1.1883003,7.7558375 q 0,-0.2320899 0.2970751,-0.7426877 0.2506571,-0.3342094 0.6962697,-0.3342094 0.3156423,0 0.5198814,0.2320899 z M 5.792964,7.0595678 5.6908445,7.1524038 q -0.037134,-0.018567 -0.083552,-0.018567 -0.1114032,0 -0.2135227,0.1299703 -0.1299704,0.1763884 -0.2413735,0.1578212 0.083552,-0.018567 0.2970751,0.083552 0.037134,0.018567 0.1206867,0.018567 0.074269,0 0.1299704,-0.1856719 0.064985,-0.2413735 0.092835,-0.2785076 z M 3.2771094,7.6630016 3.1749899,7.9693602 3.1471391,7.950793 Z M 1.7174653,8.9441378 q 0.018567,0.018567 0.018567,0.055702 0,0.037134 -0.055702,0.1114032 -0.046418,0.074269 -0.046418,0.092836 0,0.055702 0.1114032,0.083552 L 2.0423906,9.241213 Q 1.9124202,9.324765 1.7360319,9.324765 1.6153451,9.324765 1.4668076,9.287631 1.364688,9.1669442 1.364688,9.0462575 q 0,-0.1949555 0.2228063,-0.1949555 0.1021196,0 0.129971,0.092836 z"
         style="font-style:normal;font-variant:normal;font-weight:normal;font-stretch:normal;font-family:DrPoDecorRu;-inkscape-font-specification:DrPoDecorRu"
         id="path5174" />
    </g>
    <rect
       style="fill:#d40000;stroke-width:0.0640427;stroke-linecap:round;stroke-linejoin:round"
       id="rect5177"
       width="12.7"
       height="12.7"
       x="-6.6257863"
       y="-32.853146" />
    <g
       id="g5192"
       transform="translate(-32.365676,-35.093817)">
      <ellipse
         style="fill:#6e00d1;fill-opacity:1;stroke-width:0.0675291;stroke-linecap:round;stroke-linejoin:round"
         id="path5179"
         cx="8.463438"
         cy="8.605298"
         rx="8.2774286"
         ry="5.4431338" />
      <text
         xml:space="preserve"
         id="text5183"
         style="font-style:normal;font-weight:normal;font-size:10.5833px;line-height:1.25;font-family:sans-serif;letter-spacing:0px;word-spacing:0px;white-space:pre;shape-inside:url(#rect5185);fill:#ececec;fill-opacity:1;stroke:none;"
         transform="matrix(0.84595503,0,0,0.84595503,17.961683,14.384888)"><tspan
           x="-15.191406"
           y="-2.6824255"><tspan
             style="font-style:normal;font-variant:normal;font-weight:normal;font-stretch:normal;font-family:'A.C.M.E. Secret Agent';-inkscape-font-specification:'A.C.M.E. Secret Agent';fill:#ececec">2</tspan></tspan></text>
    </g>
    <g
       id="g5268"
       transform="translate(-60.887153,-35.34183)">
      <path
         sodipodi:type="star"
         style="fill:#808080;fill-opacity:1;stroke-width:0.0649999;stroke-linecap:round;stroke-linejoin:round"
         id="path5194"
         sodipodi:sides="8"
         sodipodi:cx="-51.586666"
         sodipodi:cy="-1.1160578"
         sodipodi:r1="15.046226"
         sodipodi:r2="10.532358"
         sodipodi:arg1="1.5707963"
         sodipodi:arg2="1.9634954"
         inkscape:flatsided="false"
         inkscape:rounded="0"
         inkscape:randomized="0"
         d="m -51.586666,13.930168 -4.030559,-5.3155956 -6.608729,0.9086582 0.908658,-6.6087293 -5.315596,-4.0305587 5.315596,-4.0305592 -0.908659,-6.6087294 6.60873,0.908658 4.030558,-5.315595 4.03056,5.315595 6.608729,-0.908658 -0.908658,6.6087292 5.315595,4.0305586 -5.315595,4.0305593 0.908658,6.608729 -6.608729,-0.9086577 z"
         inkscape:transform-center-y="1.8508019"
         transform="matrix(0.49203085,0.28407414,-0.28407414,0.49203085,33.527669,23.663866)"
         inkscape:transform-center-x="1.0685604" />
      <path
         sodipodi:type="star"
         style="fill:#c83737;fill-opacity:1;stroke-width:0.0649999;stroke-linecap:round;stroke-linejoin:round"
         id="path5194-1"
         sodipodi:sides="8"
         sodipodi:cx="-51.586666"
         sodipodi:cy="-1.1160578"
         sodipodi:r1="15.046226"
         sodipodi:r2="10.532358"
         sodipodi:arg1="1.5707963"
         sodipodi:arg2="1.9634954"
         inkscape:flatsided="false"
         inkscape:rounded="0"
         inkscape:randomized="0"
         inkscape:transform-center-y="1.6057568"
         transform="matrix(0.42688612,0.2464628,-0.2464628,0.42688612,30.209046,21.650918)"
         inkscape:transform-center-x="0.92708328"
         d="m -51.586666,13.930168 -4.030559,-5.3155956 -6.608729,0.9086582 0.908658,-6.6087293 -5.315596,-4.0305587 5.315596,-4.0305592 -0.908659,-6.6087294 6.60873,0.908658 4.030558,-5.315595 4.03056,5.315595 6.608729,-0.908658 -0.908658,6.6087292 5.315595,4.0305586 -5.315595,4.0305593 0.908658,6.608729 -6.608729,-0.9086577 z" />
      <path
         sodipodi:type="star"
         style="fill:#ff6600;fill-opacity:1;stroke-width:0.0649999;stroke-linecap:round;stroke-linejoin:round"
         id="path5194-1-6"
         sodipodi:sides="8"
         sodipodi:cx="-51.586666"
         sodipodi:cy="-1.1160578"
         sodipodi:r1="15.046226"
         sodipodi:r2="10.532358"
         sodipodi:arg1="1.5707963"
         sodipodi:arg2="1.9634954"
         inkscape:flatsided="false"
         inkscape:rounded="0"
         inkscape:randomized="0"
         inkscape:transform-center-y="1.3220184"
         transform="matrix(0.35145536,0.20291284,-0.20291284,0.35145536,26.366429,19.320134)"
         inkscape:transform-center-x="0.76326776"
         d="m -51.586666,13.930168 -4.030559,-5.3155956 -6.608729,0.9086582 0.908658,-6.6087293 -5.315596,-4.0305587 5.315596,-4.0305592 -0.908659,-6.6087294 6.60873,0.908658 4.030558,-5.315595 4.03056,5.315595 6.608729,-0.908658 -0.908658,6.6087292 5.315595,4.0305586 -5.315595,4.0305593 0.908658,6.608729 -6.608729,-0.9086577 z" />
    </g>
    <g
       id="g5351"
       transform="translate(65.161904,-36.187086)"
       style="stroke:#f2f2f2">
      <path
         id="path5270"
         style="fill:none;stroke:#f2f2f2;stroke-width:0.264583px;stroke-linecap:butt;stroke-linejoin:miter;stroke-opacity:1"
         d="M 1.2090626,4.1232135 C 1.4542123,3.6793555 1.2610808,3.0298623 2.0423563,2.9499471 2.9207524,3.1087441 3.6042798,3.9906802 3.837584,4.8314082 3.9541132,5.9628704 4.3167641,7.0943166 4.1476351,8.2396375 3.909038,9.1448301 2.721696,9.1672393 1.9803216,8.9703784 1.7953934,8.9093347 1.5998519,8.8074208 1.5190786,8.6184462" />
      <path
         id="path5278"
         style="fill:none;stroke:#f2f2f2;stroke-width:0.264583px;stroke-linecap:butt;stroke-linejoin:miter;stroke-opacity:1"
         d="m 4.5262344,3.4721797 c 0.1647014,0.8837072 0.5297507,1.7240904 0.5682319,2.6326013 0.033358,0.2535893 0.075906,0.5094001 0.1758061,0.7465737" />
      <path
         id="path5280"
         style="fill:none;stroke:#f2f2f2;stroke-width:0.264583px;stroke-linecap:butt;stroke-linejoin:miter;stroke-opacity:1"
         d="M 7.0683658,2.4491268 C 6.6899035,1.6618761 5.2941265,1.6109458 5.2700932,2.6455242 5.0242725,3.8216654 5.796932,4.8318486 6.1411927,5.898762 6.3943984,6.5974222 6.6214885,7.3253427 7.1008125,7.9055548 7.8083804,8.1822904 8.3387056,7.1356906 8.3087965,6.5164745 8.3347911,6.3491395 8.2343188,6.1511073 8.3704336,6.0143117" />
      <path
         id="path5282"
         style="fill:none;stroke:#f2f2f2;stroke-width:0.264583px;stroke-linecap:butt;stroke-linejoin:miter;stroke-opacity:1"
         d="M 3.9372039,6.0763144 C 4.5215635,5.7970515 5.1885592,5.752048 5.7662986,5.4562825" />
      <path
         id="path5284"
         style="fill:none;stroke:#f2f2f2;stroke-width:0.264583px;stroke-linecap:butt;stroke-linejoin:miter;stroke-opacity:1"
         d="M 9.4554896,3.5961862 C 9.3280711,4.5132912 9.2886521,5.5323854 9.7855573,6.3514393 10.581081,7.0699743 11.273099,5.8931393 10.996736,5.1602567 10.725423,4.4908819 9.6466209,4.5758673 9.3004816,5.1152647" />
      <path
         id="path5286"
         style="fill:none;stroke:#f2f2f2;stroke-width:0.264583px;stroke-linecap:butt;stroke-linejoin:miter;stroke-opacity:1"
         d="m 11.749608,3.131162 c 0.01866,1.0703814 -0.12026,2.214662 0.398865,3.1985776 0.305441,0.1051724 0.536178,-0.2170994 0.748176,-0.3774329" />
      <path
         id="path5296"
         style="fill:none;stroke:#f2f2f2;stroke-width:0.264583px;stroke-linecap:butt;stroke-linejoin:miter;stroke-opacity:1"
         d="m 3.5651846,11.904616 c -0.1198394,-0.854926 0.63069,-1.549313 1.4644453,-1.405931 0.8671411,0.126531 1.0266683,1.187624 1.1404226,1.905473 0.09739,0.927687 0.2166313,1.869752 0.5437471,2.740428 0.4564966,0.797511 1.3107402,0.352661 1.4396229,-0.418834" />
      <path
         id="path5298"
         style="fill:none;stroke:#f2f2f2;stroke-width:0.264583px;stroke-linecap:butt;stroke-linejoin:miter;stroke-opacity:1"
         d="m 7.0373643,10.571547 c 0.4000833,1.309139 0.6424902,2.66206 1.0612552,3.964155 0.1205868,0.826497 1.2053423,0.694002 1.4808775,0.06605" />
      <path
         id="path5300"
         style="fill:none;stroke:#f2f2f2;stroke-width:0.264583px;stroke-linecap:butt;stroke-linejoin:miter;stroke-opacity:1"
         d="m 8.401435,9.6414989 c 0.4705177,1.3353181 0.5827984,2.7707121 1.1077343,4.0897771 0.06952,0.596999 0.2444461,1.584547 1.0695457,1.381059 0.307616,-0.04338 0.601245,-0.240486 0.705869,-0.54158" />
      <path
         id="path5302"
         style="fill:none;stroke:#f2f2f2;stroke-width:0.264583px;stroke-linecap:butt;stroke-linejoin:miter;stroke-opacity:1"
         d="m 11.811611,10.540546 c 0.323471,1.17713 0.58778,2.388985 1.097504,3.500373 0.745091,0.65954 1.568906,-0.777224 0.915819,-1.352239 -0.434979,-0.49489 -1.134847,-0.311915 -1.424291,0.20798" />
      <path
         id="path5304"
         style="fill:none;stroke:#f2f2f2;stroke-width:0.264583px;stroke-linecap:butt;stroke-linejoin:miter;stroke-opacity:1"
         d="m 14.074729,9.7965069 c 0.233737,1.2571481 0.149255,2.6845331 1.023048,3.7201931 0.345661,0.242571 0.996457,0.07101 1.02305,-0.403026" />
    </g>
    <g
       id="g1020"
       transform="translate(90.969481,-36.778359)">
      <circle
         style="fill:#ffd42a;fill-opacity:1;stroke:none;stroke-width:0.0159825;stroke-linecap:round;stroke-linejoin:round"
         id="path1010"
         cx="12.948388"
         cy="6.2580733"
         r="2.3408413" />
      <path
         id="path956-0"
         style="fill:#67c6d4;fill-opacity:1;stroke:none;stroke-width:0.0212962;stroke-linecap:round;stroke-linejoin:round"
         d="m 8.5199846,4.5420996 c -1.5498072,0 -3.0850106,1.2544139 -3.8371896,2.6286762 C 4.369532,7.0802118 4.065531,7.0335655 3.773584,7.0502552 1.101081,7.2030335 0.63901395,8.7864281 0.73482395,10.462404 0.83063395,12.138381 1.621947,12.921078 4.29445,12.7683 c 0.830661,-0.04749 1.840449,-0.07143 2.8853698,-0.101913 0.9190519,0.159164 2.0217599,0.216347 3.2081512,0.216347 3.204727,-10e-7 5.80274,-0.415206 5.80274,-2.139289 0,-1.7240822 -0.460985,-4.104143 -3.665712,-4.1041433 -0.20537,0 -0.417097,0.01012 -0.633387,0.028868 C 11.204142,5.4990213 9.9516543,4.5420996 8.5199846,4.5420996 Z" />
    </g>
  </g>
</svg>
