<?xml version="1.0" encoding="UTF-8" standalone="no"?>
<svg
   xmlns:dc="http://purl.org/dc/elements/1.1/"
   xmlns:cc="http://creativecommons.org/ns#"
   xmlns:rdf="http://www.w3.org/1999/02/22-rdf-syntax-ns#"
   xmlns:svg="http://www.w3.org/2000/svg"
   xmlns="http://www.w3.org/2000/svg"
   xmlns:sodipodi="http://sodipodi.sourceforge.net/DTD/sodipodi-0.dtd"
   xmlns:inkscape="http://www.inkscape.org/namespaces/inkscape"
   width="512"
   height="192"
   viewBox="0 0 135.46666 50.800002"
   version="1.1"
   id="svg5359"
   inkscape:version="1.0.2 (e86c870879, 2021-01-15, custom)"
   sodipodi:docname="05_decomp_logo.svg"
   inkscape:export-filename="D:\Downloads\logo.png"
   inkscape:export-xdpi="96"
   inkscape:export-ydpi="96">
  <defs
     id="defs5353" />
  <sodipodi:namedview
     id="base"
     pagecolor="#ffffff"
     bordercolor="#666666"
     borderopacity="1.0"
     inkscape:pageopacity="0.0"
     inkscape:pageshadow="2"
     inkscape:zoom="1.5087015"
     inkscape:cx="325.12012"
     inkscape:cy="159.14875"
     inkscape:document-units="mm"
     inkscape:current-layer="layer1"
     inkscape:document-rotation="0"
     showgrid="false"
     units="px"
     inkscape:window-width="1920"
     inkscape:window-height="1017"
     inkscape:window-x="-8"
     inkscape:window-y="-8"
     inkscape:window-maximized="1" />
  <metadata
     id="metadata5356">
    <rdf:RDF>
      <cc:Work
         rdf:about="">
        <dc:format>image/svg+xml</dc:format>
        <dc:type
           rdf:resource="http://purl.org/dc/dcmitype/StillImage" />
        <dc:title></dc:title>
      </cc:Work>
    </rdf:RDF>
  </metadata>
  <g
     inkscape:label="Layer 1"
     inkscape:groupmode="layer"
     id="layer1">
    <path
       id="path4501"
       style="font-style:normal;font-variant:normal;font-weight:normal;font-stretch:normal;font-size:10.5833px;line-height:1.25;font-family:Atlantika;-inkscape-font-specification:Atlantika;letter-spacing:0px;word-spacing:0px;white-space:pre;fill:#333333;fill-opacity:1;stroke:none;stroke-width:4.07539"
       d="m 45.071559,6.0434817 c -0.09997,0.022217 -0.167735,0.074981 -0.189396,0.1666245 -1.035183,4.2268738 -2.113965,9.8779968 -2.890324,15.2694078 -0.905714,0.172734 -1.638085,0.301035 -2.069364,0.430446 -0.905771,0.172735 -0.818459,1.595819 -0.559692,1.595819 0.690104,-0.129412 1.508118,-0.214946 2.370788,-0.301591 -0.258823,2.027153 -0.473213,3.96905 -0.645836,5.78059 -0.431557,5.348256 0.0872,8.969338 2.545855,8.969338 1.639473,0 4.029146,-3.871741 5.642792,-6.897084 -0.258823,3.909564 1.068063,7.026218 3.025178,7.026218 0.90577,0 1.812652,-1.509618 2.545854,-3.148591 0.04443,1.768386 0.517647,3.062502 1.638862,3.062502 2.242821,0 6.123282,-7.849178 7.072152,-9.87633 l 1.42364,-2.976357 c 0.08609,0 0.214945,0.04443 0.344357,0.04443 0.733203,0 1.336661,-0.214945 1.811097,-0.473768 -1.509618,5.046332 -3.103158,13.283244 0.347133,13.283244 1.739115,0 4.423101,-4.655653 6.00159,-7.720821 -0.242716,4.620551 0.371573,7.677721 2.623335,7.677721 1.683075,0 4.162779,-4.085798 5.774814,-7.141024 -0.513203,3.821421 -0.500428,7.184124 1.254294,7.184124 1.552717,0 4.055527,-3.449849 5.651401,-6.684695 -0.474324,3.623026 -0.344357,6.684695 1.294449,6.684695 1.75861,0 4.500526,-4.742854 6.081904,-7.804078 -0.457107,5.588195 -1.126327,12.043447 -1.509729,14.015115 -0.129412,0.647002 1.767719,0.862725 1.940286,-0.04443 0.431557,-1.983997 0.863114,-4.658709 1.29445,-7.591632 0.344912,0.90577 0.948315,1.423639 1.897186,1.423639 2.070305,0 4.139395,-2.070253 5.390195,-4.787508 1.03518,-0.388235 1.94178,-0.991805 2.67504,-1.681907 1.03512,-0.992027 1.72412,-2.414889 2.19856,-3.406915 0.17273,-0.431002 -0.47322,-0.775581 -0.64579,-0.430446 -0.60385,1.207638 -1.38132,2.58701 -2.54585,3.622137 -0.38824,0.302146 -0.7742,0.562247 -1.20553,0.734758 0.43155,-1.207638 0.73176,-2.546354 0.81801,-3.840304 0.25882,-4.787509 -1.16331,-7.591798 -3.83741,-7.505487 -2.15657,0.08609 -2.890992,5.3051 -2.50281,7.893 0.2155,1.811485 0.86406,3.83886 2.37362,4.615219 -0.69005,2.070308 -1.55422,3.754215 -2.33058,3.754215 -1.164536,0 -1.725505,-2.848722 -1.423582,-6.773617 l 1.122215,-8.323556 c 0.08609,-0.431002 -3.234679,-0.475435 -3.234679,0.602736 0,1.180256 -0.12719,3.266672 -0.301591,5.625574 -1.061731,2.070365 -3.793761,7.011889 -4.529185,7.011889 -0.733204,0 0.301591,-8.452635 1.897241,-13.240199 0.129412,-0.431002 -3.019068,-0.475435 -3.234736,0.602736 -0.302145,1.29395 -0.691102,2.933089 -1.036126,4.658319 -1.078282,3.53677 -3.879238,7.979144 -4.569342,7.979144 -0.776358,0 0.258269,-8.452635 1.854142,-13.240199 0.172733,-0.431002 -2.975912,-0.475435 -3.23468,0.602736 -0.359354,1.555939 -0.815516,3.634857 -1.196863,5.757596 -1.188477,2.262926 -4.696921,8.607707 -5.748988,8.607707 -1.466462,0 -0.731315,-6.686138 0.519313,-13.802724 1.33705,-0.04443 2.630277,-0.08609 3.536048,-0.04443 0.388235,0 0.646558,-2.201441 0.2155,-2.201441 -0.862614,-0.04443 -2.112964,0.08886 -3.406914,0.261044 1.035183,-5.520823 2.329243,-10.999934 3.062502,-13.4152665 0.129412,-0.4315574 -2.933034,-2.1568422 -3.105545,-1.4236392 -1.035127,4.2268737 -2.113909,9.8780527 -2.890268,15.2694087 -0.905771,0.172733 -1.638086,0.301034 -2.06942,0.430445 -0.905771,0.172735 -0.821348,1.595819 -0.56258,1.595819 0.690103,-0.129413 1.511061,-0.214946 2.373676,-0.301591 -0.223277,1.748335 -0.400454,3.39314 -0.559691,4.985514 -1.060732,2.117574 -3.757436,6.917136 -4.44304,6.917136 -2.027154,0 0.258267,-8.452636 1.85414,-13.2402 0.172735,-0.431002 -2.846556,-0.432112 -3.234735,0.602736 0,0 -0.90777,1.811597 -2.029209,1.552773 -0.08609,-0.04443 -0.214945,-0.08609 -0.301589,-0.172178 1.380206,-3.364258 2.544577,-7.416564 0.08609,-7.416564 -2.932868,0 -4.054639,6.986229 -1.380539,8.45269 -0.388235,0.992249 -0.860171,1.984775 -1.334606,2.890545 -0.900883,1.873692 -3.890626,7.330476 -4.658319,7.330476 -0.992027,0 -0.1744,-4.873932 0.904104,-7.850011 0.129411,-0.388234 -2.284033,-1.63764 -2.629111,-0.731869 -0.388236,1.035125 -0.777248,2.414165 -1.079172,3.794371 -0.517646,1.682129 -2.243154,6.340226 -2.976356,6.340226 -0.819515,0 -0.734036,-3.924005 0.430447,-8.409646 1.121437,-4.442485 2.71881,-6.297182 3.883348,-6.297182 1.121439,0 1.208416,2.93259 1.165316,3.363869 0,0.388236 0.989916,0.431558 1.162428,-0.128856 0.344912,-0.90577 0.261045,-4.399995 -2.758245,-4.399995 -2.545856,0 -5.501384,2.849944 -6.664589,7.746592 -1.311223,2.469263 -4.572841,8.300618 -5.585362,8.300618 -1.466463,0 -0.734203,-6.686138 0.516536,-13.802724 1.33705,-0.04443 2.630277,-0.08609 3.536047,-0.04443 0.388236,0 0.649447,-2.201441 0.218279,-2.201441 -0.862615,-0.04443 -2.115853,0.08886 -3.409747,0.261045 C 45.95978,15.52497 47.253896,10.045859 47.987098,7.6305261 48.100402,7.2533972 45.770992,5.8853551 45.071003,6.0404269 Z M 36.68774,7.3752553 c -3.622971,0 -8.065179,3.7943157 -8.065179,8.5818247 0,5.952103 6.770729,12.079105 6.770729,16.090255 0,2.544744 -1.767275,5.045833 -3.751328,5.045833 -4.614996,0 -3.967882,-7.593353 -1.681907,-9.836173 0.474324,-0.431558 0.25938,-2.155954 -0.387679,-1.897186 -0.647002,0.302145 -3.10688,1.727117 -3.969494,5.306988 -0.862615,3.579871 0.821293,7.806909 5.350034,7.806909 3.105435,0 7.979088,-3.148812 7.979088,-7.763864 0,-5.865792 -7.419397,-9.660941 -7.419397,-16.044324 0,-3.493614 3.018234,-6.2110918 5.261054,-6.2110918 3.924895,0 2.415611,7.0302738 -0.172178,9.5319178 -1.207693,1.164538 2.588956,1.162594 4.141673,-2.115353 1.552718,-3.277947 0.904493,-8.4957357 -4.055583,-8.4957357 z M 65.975149,17.639043 c 0.603791,0 0.04443,2.417166 -0.993081,5.306933 -0.474324,-1.854586 0.346024,-5.306933 0.993081,-5.306933 z m 36.488641,4.141672 c 1.07828,0 1.80927,3.10488 1.24857,6.641595 -0.2155,1.164538 -0.51598,2.546465 -0.86106,3.79726 -0.94892,-0.517647 -1.50917,-1.899352 -1.81109,-3.883349 -0.38824,-2.329077 0.34546,-6.555506 1.42358,-6.555506 z" />
  </g>
</svg>
